<svg viewBox="0 0 256 256" xmlns="http://www.w3.org/2000/svg">
  <defs>
    <linearGradient id="butaBg" x1="0" y1="0" x2="1" y2="1">
      <stop offset="0" stop-color="#ff6f1a"/>
      <stop offset="1" stop-color="#cf3a04"/>
    </linearGradient>
    <linearGradient id="butaShine" x1="0" y1="0" x2="0" y2="1">
      <stop offset="0" stop-color="#ffffff" stop-opacity="0.95"/>
      <stop offset="1" stop-color="#ffffff" stop-opacity="0.7"/>
    </linearGradient>
  </defs>

  <rect width="256" height="256" rx="56" fill="url(#butaBg)"/>

  <!-- Buta (paisley) silueti — Azərbaycan butası -->
  <path
    d="M128 48
       C 96 48, 72 72, 72 104
       C 72 132, 92 148, 104 168
       C 116 188, 108 208, 100 220
       C 100 220, 132 218, 156 200
       C 184 178, 200 148, 200 116
       C 200 88, 188 68, 172 60
       C 164 56, 160 48, 168 40
       C 174 32, 156 40, 148 44
       C 142 47, 136 48, 128 48 Z"
    fill="url(#butaShine)"/>

  <!-- İçəri detal -->
  <path
    d="M136 96
       C 124 96, 114 106, 114 120
       C 114 132, 122 138, 128 148
       C 132 156, 130 164, 128 168
       C 140 162, 154 152, 160 138
       C 166 124, 162 108, 154 100
       C 148 96, 142 96, 136 96 Z"
    fill="#ee5006" opacity="0.85"/>

  <circle cx="138" cy="124" r="6" fill="#fff" opacity="0.9"/>
</svg>
